<svg xmlns="http://www.w3.org/2000/svg" viewBox="0 0 320 200" fill="none">
  
  <g stroke="#0E3A2E" stroke-width="1.25" fill="none">
    <circle cx="160" cy="80" r="56"></circle>
    <circle cx="160" cy="80" r="46"></circle>
    
    <path d="M132 80 L150 80 L144 86 L150 92 L144 98 L150 104 L144 110 L188 110 L188 50 L144 50 L150 56 L144 62 L150 68 L144 74 L150 80 Z" fill="#0E3A2E" stroke="none"></path>
    
    <path d="M104 80 Q88 60 96 36 Q108 50 112 76"></path>
    <path d="M216 80 Q232 60 224 36 Q212 50 208 76"></path>
  </g>
  <g fill="#B89154">
    <path d="M154 154 L160 148 L166 154 L160 160 Z"></path>
    <line x1="76" y1="154" x2="148" y2="154" stroke="#B89154" stroke-width="0.75"></line>
    <line x1="172" y1="154" x2="244" y2="154" stroke="#B89154" stroke-width="0.75"></line>
  </g>
  <g font-family="Playfair Display, Georgia, serif" fill="#0E3A2E" text-anchor="middle">
    <text x="160" y="178" font-size="13" letter-spacing="0.18em">KINGDOM OF BAHRAIN</text>
    <text x="160" y="194" font-size="11" font-style="italic" fill="#807B6F">Ministry of Foreign Affairs</text>
  </g>
</svg>